<svg xmlns="http://www.w3.org/2000/svg" viewBox="0 0 300 300">
  <defs>
    <linearGradient id="sky-s" x1="0" y1="0" x2="0" y2="1">
      <stop offset="0%" stop-color="#5b8fbb"/>
      <stop offset="50%" stop-color="#8ab4d4"/>
      <stop offset="100%" stop-color="#c8dce8"/>
    </linearGradient>
    <linearGradient id="mountain-s" x1="0" y1="0" x2="0" y2="1">
      <stop offset="0%" stop-color="#e8e8ec"/>
      <stop offset="40%" stop-color="#c0c4cc"/>
      <stop offset="100%" stop-color="#7a8a96"/>
    </linearGradient>
    <clipPath id="circle-s">
      <circle cx="150" cy="150" r="148"/>
    </clipPath>
  </defs>

  <circle cx="150" cy="150" r="150" fill="url(#sky-s)"/>

  <g clip-path="url(#circle-s)">
    <rect width="300" height="300" fill="url(#sky-s)"/>

    <!-- Clouds -->
    <ellipse cx="80"  cy="60"  rx="45" ry="20" fill="white" opacity="0.85"/>
    <ellipse cx="110" cy="52"  rx="35" ry="18" fill="white" opacity="0.9"/>
    <ellipse cx="220" cy="75"  rx="40" ry="18" fill="white" opacity="0.8"/>
    <ellipse cx="250" cy="65"  rx="30" ry="15" fill="white" opacity="0.85"/>

    <!-- Mountain -->
    <polygon points="90,200 150,90 210,200" fill="url(#mountain-s)"/>
    <polygon points="130,125 150,90 170,125 160,120 150,108 140,120 Z" fill="white" opacity="0.95"/>
    <polygon points="150,90 210,200 170,200" fill="#9aa4ae" opacity="0.4"/>

    <!-- Green foothills -->
    <ellipse cx="50"  cy="290" rx="130" ry="70" fill="#2d5a3d"/>
    <ellipse cx="260" cy="295" rx="120" ry="65" fill="#1a3a2a"/>
    <ellipse cx="150" cy="300" rx="170" ry="50" fill="#3a6b4a"/>

    <!-- Body — black Columbia jacket -->
    <rect x="80" y="220" width="140" height="90" rx="10" fill="#1c1f24"/>
    <line x1="150" y1="225" x2="150" y2="310" stroke="#333" stroke-width="2"/>
    <circle cx="165" cy="240" r="6" fill="#2a2d34"/>

    <!-- Hijab — dark teal/navy, wraps around head -->
    <path d="M88 195 Q82 180 85 158 Q88 128 108 116 Q130 106 150 106 Q170 106 192 116 Q212 128 215 158 Q218 180 212 195 Q190 218 150 222 Q110 218 88 195 Z" fill="#3a5a6a"/>
    <!-- Hijab drape over shoulders -->
    <path d="M88 195 Q76 212 78 232 Q88 244 112 246 Q132 248 150 248" fill="#3a5a6a"/>
    <path d="M212 195 Q224 212 222 232 Q212 244 188 246 Q168 248 150 248" fill="#3a5a6a"/>
    <!-- Hijab highlight fold -->
    <path d="M96 182 Q90 168 96 156" stroke="#5a7a8a" stroke-width="2" fill="none" opacity="0.5"/>
    <path d="M92 198 Q87 210 90 222" stroke="#5a7a8a" stroke-width="1.5" fill="none" opacity="0.4"/>

    <!-- Face -->
    <ellipse cx="150" cy="170" rx="45" ry="47" fill="#ddb890"/>

    <!-- Ear hints -->
    <ellipse cx="106" cy="173" rx="7" ry="9" fill="#ddb890"/>
    <ellipse cx="194" cy="173" rx="7" ry="9" fill="#ddb890"/>

    <!-- Smile -->
    <path d="M135 190 Q150 202 165 190" stroke="#b8886a" stroke-width="2" fill="none"/>
    <path d="M138 191 Q150 200 162 191" fill="white" opacity="0.7"/>

    <!-- Nose -->
    <path d="M146 181 Q148 186 150 186 Q152 186 154 181" stroke="#c4906a" stroke-width="1.5" fill="none"/>

    <!-- Eyes -->
    <ellipse cx="136" cy="167" rx="9" ry="7" fill="white"/>
    <ellipse cx="164" cy="167" rx="9" ry="7" fill="white"/>
    <ellipse cx="137" cy="168" rx="5" ry="5" fill="#3a2010"/>
    <ellipse cx="165" cy="168" rx="5" ry="5" fill="#3a2010"/>
    <circle cx="139" cy="166" r="1.5" fill="white"/>
    <circle cx="167" cy="166" r="1.5" fill="white"/>
    <path d="M127 159 Q136 155 145 158" stroke="#2a1a0a" stroke-width="2" fill="none" stroke-linecap="round"/>
    <path d="M155 158 Q164 155 173 159" stroke="#2a1a0a" stroke-width="2" fill="none" stroke-linecap="round"/>

    <!-- Visor over hijab — tan/cream colored -->
    <path d="M90 138 Q150 132 210 138 L212 146 Q150 153 88 146 Z" fill="#d4b896"/>
    <path d="M102 138 Q104 120 150 118 Q196 120 198 138" fill="#c8aa80"/>
    <path d="M102 138 Q150 134 198 138 Q150 142 102 138 Z" fill="#b89860"/>

  </g>

  <circle cx="150" cy="150" r="148" fill="none" stroke="#e8e0d0" stroke-width="3"/>
</svg>
